# xmcd
#
# Track frame offsets:
#	150
#	15156
#	31370
#	47851
#
# Disc length: 814 seconds
#
# Revision: 1
# Processed by: cddbd v1.5.1PL2 Copyright (c) Steve Scherf et al.
# Submitted via: EasyCDDAExtractor 9.0.0.1
#
DISCID=24032c04
DTITLE=Wide Screen Mode - Another Day - Promo EP
DYEAR=2005
DGENRE=Rock and Roll
TTITLE0=We Don't Need Your War
TTITLE1=Another Day
TTITLE2=Everlasting Bomb
TTITLE3=Nikos Leeft Van De LOL
EXTD=rlokker@worldonline.nl\ngenre =misc \nSingle CD
EXTT0=
EXTT1=
EXTT2=
EXTT3=
PLAYORDER=
